{"buffers":[{"uri":"Cartridge Base_V2.bin","byteLength":13968}],"asset":{"version":"2.0","generator":"gltfpack 0.16"},"bufferViews":[{"buffer":0,"byteOffset":0,"byteLength":5736,"byteStride":12,"target":34962},{"buffer":0,"byteOffset":5736,"byteLength":5736,"byteStride":12,"target":34962},{"buffer":0,"byteOffset":11472,"byteLength":2496,"target":34963}],"accessors":[{"bufferView":0,"byteOffset":0,"componentType":5126,"count":4,"type":"VEC3","min":[-0.0850000009,0.00300000003,0.000925],"max":[-0.0839999989,0.00370020978,0.00274999999]},{"bufferView":1,"byteOffset":0,"componentType":5126,"count":4,"type":"VEC3"},{"bufferView":2,"byteOffset":0,"componentType":5123,"count":6,"type":"SCALAR"},{"bufferView":0,"byteOffset":48,"componentType":5126,"count":4,"type":"VEC3","min":[-0.0850000009,0.00300000003,0.000925],"max":[-0.0839999989,0.0375999995,0.00119294866]},{"bufferView":1,"byteOffset":48,"componentType":5126,"count":4,"type":"VEC3"},{"bufferView":2,"byteOffset":12,"componentType":5123,"count":6,"type":"SCALAR"},{"bufferView":0,"byteOffset":96,"componentType":5126,"count":6,"type":"VEC3","min":[-0.0850000009,0.00300000003,0.00248204987],"max":[-0.0839999989,0.0375999995,0.00274999999]},{"bufferView":1,"byteOffset":96,"componentType":5126,"count":6,"type":"VEC3"},{"bufferView":2,"byteOffset":24,"componentType":5123,"count":12,"type":"SCALAR"},{"bufferView":0,"byteOffset":168,"componentType":5126,"count":4,"type":"VEC3","min":[-0.0839999989,0.00300000003,0.000925],"max":[-0.0781200007,0.00300000003,0.00274999999]},{"bufferView":1,"byteOffset":168,"componentType":5126,"count":4,"type":"VEC3"},{"bufferView":2,"byteOffset":48,"componentType":5123,"count":6,"type":"SCALAR"},{"bufferView":0,"byteOffset":216,"componentType":5126,"count":4,"type":"VEC3","min":[-0.0781200007,0.00188000023,0.000925],"max":[-0.0769999996,0.00300000003,0.00274999999]},{"bufferView":1,"byteOffset":216,"componentType":5126,"count":4,"type":"VEC3"},{"bufferView":2,"byteOffset":60,"componentType":5123,"count":6,"type":"SCALAR"},{"bufferView":0,"byteOffset":264,"componentType":5126,"count":4,"type":"VEC3","min":[-0.0850000009,0.00370020838,0.00119294866],"max":[-0.0850000009,0.0368997939,0.00248205033]},{"bufferView":1,"byteOffset":264,"componentType":5126,"count":4,"type":"VEC3"},{"bufferView":2,"byteOffset":72,"componentType":5123,"count":6,"type":"SCALAR"},{"bufferView":0,"byteOffset":312,"componentType":5126,"count":4,"type":"VEC3","min":[-0.0850000009,0.0368997939,0.000925],"max":[-0.0839999989,0.0375999995,0.00274999999]},{"bufferView":1,"byteOffset":312,"componentType":5126,"count":4,"type":"VEC3"},{"bufferView":2,"byteOffset":84,"componentType":5123,"count":6,"type":"SCALAR"},{"bufferView":0,"byteOffset":360,"componentType":5126,"count":4,"type":"VEC3","min":[-0.0839999989,0.00390000036,0.00252999994],"max":[-0.0839999989,0.0366000012,0.00274999999]},{"bufferView":1,"byteOffset":360,"componentType":5126,"count":4,"type":"VEC3"},{"bufferView":2,"byteOffset":96,"componentType":5123,"count":6,"type":"SCALAR"},{"bufferView":0,"byteOffset":408,"componentType":5126,"count":5,"type":"VEC3","min":[-0.0839999989,0.0366000012,0.00274999999],"max":[-0.0769999996,0.0375999995,0.00274999999]},{"bufferView":1,"byteOffset":408,"componentType":5126,"count":5,"type":"VEC3"},{"bufferView":2,"byteOffset":108,"componentType":5123,"count":9,"type":"SCALAR"},{"bufferView":0,"byteOffset":468,"componentType":5126,"count":4,"type":"VEC3","min":[-0.0379999988,0.0366000012,0.00380000006],"max":[9.68000013e-10,0.0375999995,0.00380000006]},{"bufferView":1,"byteOffset":468,"componentType":5126,"count":4,"type":"VEC3"},{"bufferView":2,"byteOffset":126,"componentType":5123,"count":6,"type":"SCALAR"},{"bufferView":0,"byteOffset":516,"componentType":5126,"count":11,"type":"VEC3","min":[-0.0769115165,0.0130596701,0.00380000006],"max":[-0.0750500038,0.0149403308,0.00380000006]},{"bufferView":1,"byteOffset":516,"componentType":5126,"count":11,"type":"VEC3"},{"bufferView":2,"byteOffset":138,"componentType":5123,"count":27,"type":"SCALAR"},{"bufferView":0,"byteOffset":648,"componentType":5126,"count":4,"type":"VEC3","min":[-0.0778999999,0.00300000003,0.00380000006],"max":[0,0.00390000036,0.00380000006]},{"bufferView":1,"byteOffset":648,"componentType":5126,"count":4,"type":"VEC3"},{"bufferView":2,"byteOffset":192,"componentType":5123,"count":6,"type":"SCALAR"},{"bufferView":0,"byteOffset":696,"componentType":5126,"count":11,"type":"VEC3","min":[-0.0605115183,0.0124096703,0.00380000006],"max":[-0.0586499982,0.01429033,0.00380000006]},{"bufferView":1,"byteOffset":696,"componentType":5126,"count":11,"type":"VEC3"},{"bufferView":2,"byteOffset":204,"componentType":5123,"count":27,"type":"SCALAR"},{"bufferView":0,"byteOffset":828,"componentType":5126,"count":5,"type":"VEC3","min":[-0.0778999999,0.0366000012,0.00380000006],"max":[-0.0399999991,0.0375999995,0.00380000006]},{"bufferView":1,"byteOffset":828,"componentType":5126,"count":5,"type":"VEC3"},{"bufferView":2,"byteOffset":258,"componentType":5123,"count":9,"type":"SCALAR"},{"bufferView":0,"byteOffset":888,"componentType":5126,"count":6,"type":"VEC3","min":[-0.0839999989,0.00188000011,0.000925],"max":[9.68000013e-10,0.0375999995,0.000925]},{"bufferView":1,"byteOffset":888,"componentType":5126,"count":6,"type":"VEC3"},{"bufferView":2,"byteOffset":276,"componentType":5123,"count":12,"type":"SCALAR"},{"bufferView":0,"byteOffset":960,"componentType":5126,"count":8,"type":"VEC3","min":[-0.0839999989,0.00188000011,0.00274999999],"max":[0,0.00390000036,0.00274999999]},{"bufferView":1,"byteOffset":960,"componentType":5126,"count":8,"type":"VEC3"},{"bufferView":2,"byteOffset":300,"componentType":5123,"count":18,"type":"SCALAR"},{"bufferView":0,"byteOffset":1056,"componentType":5126,"count":4,"type":"VEC3","min":[-0.0769999996,0.00188000011,0.000925],"max":[0,0.00188000023,0.00274999999]},{"bufferView":1,"byteOffset":1056,"componentType":5126,"count":4,"type":"VEC3"},{"bufferView":2,"byteOffset":336,"componentType":5123,"count":6,"type":"SCALAR"},{"bufferView":0,"byteOffset":1104,"componentType":5126,"count":10,"type":"VEC3","min":[-0.0839999989,0.0375999995,0.000925],"max":[9.68000013e-10,0.0375999995,0.00380000006]},{"bufferView":1,"byteOffset":1104,"componentType":5126,"count":10,"type":"VEC3"},{"bufferView":2,"byteOffset":348,"componentType":5123,"count":24,"type":"SCALAR"},{"bufferView":0,"byteOffset":1224,"componentType":5126,"count":4,"type":"VEC3","min":[-0.0769999996,0.0375000015,0.00274999999],"max":[-0.0769999996,0.0375999995,0.00380000006]},{"bufferView":1,"byteOffset":1224,"componentType":5126,"count":4,"type":"VEC3"},{"bufferView":2,"byteOffset":396,"componentType":5123,"count":6,"type":"SCALAR"},{"bufferView":0,"byteOffset":1272,"componentType":5126,"count":4,"type":"VEC3","min":[-0.0399999991,0.0366000012,0.00264999992],"max":[-0.0379999988,0.0375999995,0.00264999992]},{"bufferView":1,"byteOffset":1272,"componentType":5126,"count":4,"type":"VEC3"},{"bufferView":2,"byteOffset":408,"componentType":5123,"count":6,"type":"SCALAR"},{"bufferView":0,"byteOffset":1320,"componentType":5126,"count":4,"type":"VEC3","min":[-0.0379999988,0.0366000012,0.00264999992],"max":[-0.0379999988,0.0375999995,0.00380000006]},{"bufferView":1,"byteOffset":1320,"componentType":5126,"count":4,"type":"VEC3"},{"bufferView":2,"byteOffset":420,"componentType":5123,"count":6,"type":"SCALAR"},{"bufferView":0,"byteOffset":1368,"componentType":5126,"count":4,"type":"VEC3","min":[-0.0778999999,0.0366000012,0.00274999999],"max":[-0.0769999996,0.0375000015,0.00380000006]},{"bufferView":1,"byteOffset":1368,"componentType":5126,"count":4,"type":"VEC3"},{"bufferView":2,"byteOffset":432,"componentType":5123,"count":6,"type":"SCALAR"},{"bufferView":0,"byteOffset":1416,"componentType":5126,"count":4,"type":"VEC3","min":[-0.0769999996,0.00300000003,0.00274999999],"max":[0,0.00300000003,0.00380000006]},{"bufferView":1,"byteOffset":1416,"componentType":5126,"count":4,"type":"VEC3"},{"bufferView":2,"byteOffset":444,"componentType":5123,"count":6,"type":"SCALAR"},{"bufferView":0,"byteOffset":1464,"componentType":5126,"count":26,"type":"VEC3","min":[-0.0839999989,0.00390000036,0.00252999994],"max":[0,0.0366000012,0.00252999994]},{"bufferView":1,"byteOffset":1464,"componentType":5126,"count":26,"type":"VEC3"},{"bufferView":2,"byteOffset":456,"componentType":5123,"count":84,"type":"SCALAR"},{"bufferView":0,"byteOffset":1776,"componentType":5126,"count":6,"type":"VEC3","min":[-0.0839999989,0.00390000036,0.00252999994],"max":[0,0.00390000036,0.00380000006]},{"bufferView":1,"byteOffset":1776,"componentType":5126,"count":6,"type":"VEC3"},{"bufferView":2,"byteOffset":624,"componentType":5123,"count":12,"type":"SCALAR"},{"bufferView":0,"byteOffset":1848,"componentType":5126,"count":10,"type":"VEC3","min":[-0.0839999989,0.0366000012,0.00252999994],"max":[0,0.0366000012,0.00380000006]},{"bufferView":1,"byteOffset":1848,"componentType":5126,"count":10,"type":"VEC3"},{"bufferView":2,"byteOffset":648,"componentType":5123,"count":24,"type":"SCALAR"},{"bufferView":0,"byteOffset":1968,"componentType":5126,"count":22,"type":"VEC3","min":[-0.0605115183,0.0124096703,0.00252999994],"max":[-0.0586499982,0.01429033,0.00380000006]},{"bufferView":1,"byteOffset":1968,"componentType":5126,"count":22,"type":"VEC3"},{"bufferView":2,"byteOffset":696,"componentType":5123,"count":66,"type":"SCALAR"},{"bufferView":0,"byteOffset":2232,"componentType":5126,"count":22,"type":"VEC3","min":[-0.0769115165,0.0130596701,0.00252999994],"max":[-0.0750500038,0.0149403308,0.00380000006]},{"bufferView":1,"byteOffset":2232,"componentType":5126,"count":22,"type":"VEC3"},{"bufferView":2,"byteOffset":828,"componentType":5123,"count":66,"type":"SCALAR"},{"bufferView":0,"byteOffset":2496,"componentType":5126,"count":4,"type":"VEC3","min":[-0.0399999991,0.0366000012,0.00264999992],"max":[-0.0399999991,0.0375999995,0.00380000006]},{"bufferView":1,"byteOffset":2496,"componentType":5126,"count":4,"type":"VEC3"},{"bufferView":2,"byteOffset":960,"componentType":5123,"count":6,"type":"SCALAR"},{"bufferView":0,"byteOffset":2544,"componentType":5126,"count":10,"type":"VEC3","min":[0,0.00188000011,0.000925],"max":[9.68000013e-10,0.0375999995,0.00380000006]},{"bufferView":1,"byteOffset":2544,"componentType":5126,"count":10,"type":"VEC3"},{"bufferView":2,"byteOffset":972,"componentType":5123,"count":24,"type":"SCALAR"},{"bufferView":0,"byteOffset":2664,"componentType":5126,"count":4,"type":"VEC3","min":[-0.0778999999,0.00300000003,0.00274999999],"max":[-0.0769999996,0.00390000036,0.00380000006]},{"bufferView":1,"byteOffset":2664,"componentType":5126,"count":4,"type":"VEC3"},{"bufferView":2,"byteOffset":1020,"componentType":5123,"count":6,"type":"SCALAR"},{"bufferView":0,"byteOffset":2712,"componentType":5126,"count":40,"type":"VEC3","min":[-0.0436704271,0.013879573,0.00349999988],"max":[-0.0374295749,0.020120427,0.00380000006]},{"bufferView":1,"byteOffset":2712,"componentType":5126,"count":40,"type":"VEC3"},{"bufferView":2,"byteOffset":1032,"componentType":5123,"count":120,"type":"SCALAR"},{"bufferView":0,"byteOffset":3192,"componentType":5126,"count":50,"type":"VEC3","min":[-0.0778999999,0.00390000013,0.00380000006],"max":[0,0.0375000015,0.00380000006]},{"bufferView":1,"byteOffset":3192,"componentType":5126,"count":50,"type":"VEC3"},{"bufferView":2,"byteOffset":1272,"componentType":5123,"count":162,"type":"SCALAR"},{"bufferView":0,"byteOffset":3792,"componentType":5126,"count":38,"type":"VEC3","min":[-0.0436704271,0.013879573,0.00298000011],"max":[-0.0374295749,0.020120427,0.00349999988]},{"bufferView":1,"byteOffset":3792,"componentType":5126,"count":38,"type":"VEC3"},{"bufferView":2,"byteOffset":1596,"componentType":5123,"count":114,"type":"SCALAR"},{"bufferView":0,"byteOffset":4248,"componentType":5126,"count":22,"type":"VEC3","min":[-0.0605115183,0.0124096703,0.00298000011],"max":[-0.0586499982,0.01429033,0.00380000006]},{"bufferView":1,"byteOffset":4248,"componentType":5126,"count":22,"type":"VEC3"},{"bufferView":2,"byteOffset":1824,"componentType":5123,"count":66,"type":"SCALAR"},{"bufferView":0,"byteOffset":4512,"componentType":5126,"count":22,"type":"VEC3","min":[-0.0769115165,0.0130596701,0.00298000011],"max":[-0.0750500038,0.0149403308,0.00380000006]},{"bufferView":1,"byteOffset":4512,"componentType":5126,"count":22,"type":"VEC3"},{"bufferView":2,"byteOffset":1956,"componentType":5123,"count":66,"type":"SCALAR"},{"bufferView":0,"byteOffset":4776,"componentType":5126,"count":4,"type":"VEC3","min":[-0.0778999999,0.00390000013,0.00298000011],"max":[-0.0778999999,0.0365999974,0.00380000006]},{"bufferView":1,"byteOffset":4776,"componentType":5126,"count":4,"type":"VEC3"},{"bufferView":2,"byteOffset":2088,"componentType":5123,"count":6,"type":"SCALAR"},{"bufferView":0,"byteOffset":4824,"componentType":5126,"count":4,"type":"VEC3","min":[-0.0778999999,0.00390000013,0.00298000011],"max":[0,0.00390000013,0.00380000006]},{"bufferView":1,"byteOffset":4824,"componentType":5126,"count":4,"type":"VEC3"},{"bufferView":2,"byteOffset":2100,"componentType":5123,"count":6,"type":"SCALAR"},{"bufferView":0,"byteOffset":4872,"componentType":5126,"count":4,"type":"VEC3","min":[0,0.00390000013,0.00298000011],"max":[0,0.0365999974,0.00380000006]},{"bufferView":1,"byteOffset":4872,"componentType":5126,"count":4,"type":"VEC3"},{"bufferView":2,"byteOffset":2112,"componentType":5123,"count":6,"type":"SCALAR"},{"bufferView":0,"byteOffset":4920,"componentType":5126,"count":4,"type":"VEC3","min":[-0.0379999988,0.0365999974,0.00298000011],"max":[0,0.0366000012,0.00380000006]},{"bufferView":1,"byteOffset":4920,"componentType":5126,"count":4,"type":"VEC3"},{"bufferView":2,"byteOffset":2124,"componentType":5123,"count":6,"type":"SCALAR"},{"bufferView":0,"byteOffset":4968,"componentType":5126,"count":4,"type":"VEC3","min":[-0.0379999988,0.0366000012,0.00298000011],"max":[-0.0379999988,0.0375000015,0.00380000006]},{"bufferView":1,"byteOffset":4968,"componentType":5126,"count":4,"type":"VEC3"},{"bufferView":2,"byteOffset":2136,"componentType":5123,"count":6,"type":"SCALAR"},{"bufferView":0,"byteOffset":5016,"componentType":5126,"count":4,"type":"VEC3","min":[-0.0399999991,0.0375000015,0.00298000011],"max":[-0.0379999988,0.0375000015,0.00380000006]},{"bufferView":1,"byteOffset":5016,"componentType":5126,"count":4,"type":"VEC3"},{"bufferView":2,"byteOffset":2148,"componentType":5123,"count":6,"type":"SCALAR"},{"bufferView":0,"byteOffset":5064,"componentType":5126,"count":4,"type":"VEC3","min":[-0.0399999991,0.0366000012,0.00298000011],"max":[-0.0399999991,0.0375000015,0.00380000006]},{"bufferView":1,"byteOffset":5064,"componentType":5126,"count":4,"type":"VEC3"},{"bufferView":2,"byteOffset":2160,"componentType":5123,"count":6,"type":"SCALAR"},{"bufferView":0,"byteOffset":5112,"componentType":5126,"count":4,"type":"VEC3","min":[-0.0778999999,0.0365999974,0.00298000011],"max":[-0.0399999991,0.0366000012,0.00380000006]},{"bufferView":1,"byteOffset":5112,"componentType":5126,"count":4,"type":"VEC3"},{"bufferView":2,"byteOffset":2172,"componentType":5123,"count":6,"type":"SCALAR"},{"bufferView":0,"byteOffset":5160,"componentType":5126,"count":48,"type":"VEC3","min":[-0.0778999999,0.00390000013,0.00298000011],"max":[0,0.0375000015,0.00298000011]},{"bufferView":1,"byteOffset":5160,"componentType":5126,"count":48,"type":"VEC3"},{"bufferView":2,"byteOffset":2184,"componentType":5123,"count":156,"type":"SCALAR"}],"materials":[{"pbrMetallicRoughness":{"baseColorFactor":[0.972549021,0.968627453,0.929411769,1],"metallicFactor":0,"roughnessFactor":0},"doubleSided":true}],"meshes":[{"primitives":[{"attributes":{"POSITION":0,"NORMAL":1},"mode":4,"indices":2,"material":0}]},{"primitives":[{"attributes":{"POSITION":3,"NORMAL":4},"mode":4,"indices":5,"material":0}]},{"primitives":[{"attributes":{"POSITION":6,"NORMAL":7},"mode":4,"indices":8,"material":0}]},{"primitives":[{"attributes":{"POSITION":9,"NORMAL":10},"mode":4,"indices":11,"material":0}]},{"primitives":[{"attributes":{"POSITION":12,"NORMAL":13},"mode":4,"indices":14,"material":0}]},{"primitives":[{"attributes":{"POSITION":15,"NORMAL":16},"mode":4,"indices":17,"material":0}]},{"primitives":[{"attributes":{"POSITION":18,"NORMAL":19},"mode":4,"indices":20,"material":0}]},{"primitives":[{"attributes":{"POSITION":21,"NORMAL":22},"mode":4,"indices":23,"material":0}]},{"primitives":[{"attributes":{"POSITION":24,"NORMAL":25},"mode":4,"indices":26,"material":0}]},{"primitives":[{"attributes":{"POSITION":27,"NORMAL":28},"mode":4,"indices":29,"material":0}]},{"primitives":[{"attributes":{"POSITION":30,"NORMAL":31},"mode":4,"indices":32,"material":0}]},{"primitives":[{"attributes":{"POSITION":33,"NORMAL":34},"mode":4,"indices":35,"material":0}]},{"primitives":[{"attributes":{"POSITION":36,"NORMAL":37},"mode":4,"indices":38,"material":0}]},{"primitives":[{"attributes":{"POSITION":39,"NORMAL":40},"mode":4,"indices":41,"material":0}]},{"primitives":[{"attributes":{"POSITION":42,"NORMAL":43},"mode":4,"indices":44,"material":0}]},{"primitives":[{"attributes":{"POSITION":45,"NORMAL":46},"mode":4,"indices":47,"material":0}]},{"primitives":[{"attributes":{"POSITION":48,"NORMAL":49},"mode":4,"indices":50,"material":0}]},{"primitives":[{"attributes":{"POSITION":51,"NORMAL":52},"mode":4,"indices":53,"material":0}]},{"primitives":[{"attributes":{"POSITION":54,"NORMAL":55},"mode":4,"indices":56,"material":0}]},{"primitives":[{"attributes":{"POSITION":57,"NORMAL":58},"mode":4,"indices":59,"material":0}]},{"primitives":[{"attributes":{"POSITION":60,"NORMAL":61},"mode":4,"indices":62,"material":0}]},{"primitives":[{"attributes":{"POSITION":63,"NORMAL":64},"mode":4,"indices":65,"material":0}]},{"primitives":[{"attributes":{"POSITION":66,"NORMAL":67},"mode":4,"indices":68,"material":0}]},{"primitives":[{"attributes":{"POSITION":69,"NORMAL":70},"mode":4,"indices":71,"material":0}]},{"primitives":[{"attributes":{"POSITION":72,"NORMAL":73},"mode":4,"indices":74,"material":0}]},{"primitives":[{"attributes":{"POSITION":75,"NORMAL":76},"mode":4,"indices":77,"material":0}]},{"primitives":[{"attributes":{"POSITION":78,"NORMAL":79},"mode":4,"indices":80,"material":0}]},{"primitives":[{"attributes":{"POSITION":81,"NORMAL":82},"mode":4,"indices":83,"material":0}]},{"primitives":[{"attributes":{"POSITION":84,"NORMAL":85},"mode":4,"indices":86,"material":0}]},{"primitives":[{"attributes":{"POSITION":87,"NORMAL":88},"mode":4,"indices":89,"material":0}]},{"primitives":[{"attributes":{"POSITION":90,"NORMAL":91},"mode":4,"indices":92,"material":0}]},{"primitives":[{"attributes":{"POSITION":93,"NORMAL":94},"mode":4,"indices":95,"material":0}]},{"primitives":[{"attributes":{"POSITION":96,"NORMAL":97},"mode":4,"indices":98,"material":0}]},{"primitives":[{"attributes":{"POSITION":99,"NORMAL":100},"mode":4,"indices":101,"material":0}]},{"primitives":[{"attributes":{"POSITION":102,"NORMAL":103},"mode":4,"indices":104,"material":0}]},{"primitives":[{"attributes":{"POSITION":105,"NORMAL":106},"mode":4,"indices":107,"material":0}]},{"primitives":[{"attributes":{"POSITION":108,"NORMAL":109},"mode":4,"indices":110,"material":0}]},{"primitives":[{"attributes":{"POSITION":111,"NORMAL":112},"mode":4,"indices":113,"material":0}]},{"primitives":[{"attributes":{"POSITION":114,"NORMAL":115},"mode":4,"indices":116,"material":0}]},{"primitives":[{"attributes":{"POSITION":117,"NORMAL":118},"mode":4,"indices":119,"material":0}]},{"primitives":[{"attributes":{"POSITION":120,"NORMAL":121},"mode":4,"indices":122,"material":0}]},{"primitives":[{"attributes":{"POSITION":123,"NORMAL":124},"mode":4,"indices":125,"material":0}]},{"primitives":[{"attributes":{"POSITION":126,"NORMAL":127},"mode":4,"indices":128,"material":0}]},{"primitives":[{"attributes":{"POSITION":129,"NORMAL":130},"mode":4,"indices":131,"material":0}]},{"primitives":[{"attributes":{"POSITION":132,"NORMAL":133},"mode":4,"indices":134,"material":0}]}],"nodes":[{"mesh":0},{"mesh":1},{"mesh":2},{"mesh":3},{"mesh":4},{"mesh":5},{"mesh":6},{"mesh":7},{"mesh":8},{"mesh":9},{"mesh":10},{"mesh":11},{"mesh":12},{"mesh":13},{"mesh":14},{"mesh":15},{"mesh":16},{"mesh":17},{"mesh":18},{"mesh":19},{"mesh":20},{"mesh":21},{"mesh":22},{"mesh":23},{"mesh":24},{"mesh":25},{"mesh":26},{"mesh":27},{"mesh":28},{"mesh":29},{"mesh":30},{"mesh":31},{"mesh":32},{"mesh":33},{"mesh":34},{"mesh":35},{"mesh":36},{"mesh":37},{"mesh":38},{"mesh":39},{"mesh":40},{"mesh":41},{"mesh":42},{"mesh":43},{"mesh":44},{"name":"Cartridge Base_V2","children":[46,47,48,49,50,51,52,53,54,55,56,57,58,59,60,61,62,63,64,65,66,67,68,69,70,71,72,73,74,75,76,77,78,79,80,81,82,83,84,85,86,87,88,89,90]},{"name":"Base V2","children":[0]},{"name":"Base V2","children":[1]},{"name":"Base V2","children":[2]},{"name":"Base V2","children":[3]},{"name":"Base V2","children":[4]},{"name":"Base V2","children":[5]},{"name":"Base V2","children":[6]},{"name":"Base V2","children":[7]},{"name":"Base V2","children":[8]},{"name":"Base V2","children":[9]},{"name":"Base V2","children":[10]},{"name":"Base V2","children":[11]},{"name":"Base V2","children":[12]},{"name":"Base V2","children":[13]},{"name":"Base V2","children":[14]},{"name":"Base V2","children":[15]},{"name":"Base V2","children":[16]},{"name":"Base V2","children":[17]},{"name":"Base V2","children":[18]},{"name":"Base V2","children":[19]},{"name":"Base V2","children":[20]},{"name":"Base V2","children":[21]},{"name":"Base V2","children":[22]},{"name":"Base V2","children":[23]},{"name":"Base V2","children":[24]},{"name":"Base V2","children":[25]},{"name":"Base V2","children":[26]},{"name":"Base V2","children":[27]},{"name":"Base V2","children":[28]},{"name":"Base V2","children":[29]},{"name":"Base V2","children":[30]},{"name":"Top V2","children":[31]},{"name":"Top V2","children":[32]},{"name":"Top V2","children":[33]},{"name":"Top V2","children":[34]},{"name":"Top V2","children":[35]},{"name":"Top V2","children":[36]},{"name":"Top V2","children":[37]},{"name":"Top V2","children":[38]},{"name":"Top V2","children":[39]},{"name":"Top V2","children":[40]},{"name":"Top V2","children":[41]},{"name":"Top V2","children":[42]},{"name":"Top V2","children":[43]},{"name":"Top V2","children":[44]}],"scenes":[{"name":"Cartridge Base_V2","nodes":[45]}]}